<?xml version="1.0" standalone="no"?>
<!DOCTYPE svg PUBLIC "-//W3C//DTD SVG 20010904//EN"
 "http://www.w3.org/TR/2001/REC-SVG-20010904/DTD/svg10.dtd">
<svg version="1.0" xmlns="http://www.w3.org/2000/svg"
 width="400.000000pt" height="400.000000pt" viewBox="0 0 400.000000 400.000000"
 preserveAspectRatio="xMidYMid meet">

<g transform="translate(0.000000,400.000000) scale(0.100000,-0.100000)"
fill="#000000" stroke="none">
<path d="M1824 1995 c-22 -33 -11 -73 21 -81 35 -9 75 19 75 52 0 55 -66 75
-96 29z"/>
<path d="M2142 1953 c-7 -2 -106 -98 -221 -211 -115 -114 -252 -247 -304 -297
-93 -87 -96 -91 -96 -135 -1 -55 11 -70 57 -70 31 0 59 25 333 299 164 165
303 310 308 323 10 26 -10 88 -28 88 -5 0 -15 2 -23 4 -7 3 -19 2 -26 -1z"/>
<path d="M2232 1635 c-15 -32 -8 -46 50 -107 l43 -46 3 45 c2 25 -2 51 -9 59
-8 10 -8 14 0 14 6 0 10 10 9 23 -1 16 -8 22 -27 23 -15 0 -33 4 -42 8 -11 5
-19 -1 -27 -19z m44 -4 c5 -5 18 -11 29 -14 13 -3 9 -5 -12 -6 -18 0 -36 -8
-41 -17 -8 -15 -10 -15 -15 0 -4 10 -1 16 8 16 18 0 20 16 3 23 -9 4 -8 6 3 6
8 1 19 -3 25 -8z m24 -56 c20 -24 6 -28 -15 -5 -10 11 -13 20 -8 20 6 0 16 -7
23 -15z m20 -55 c0 -5 -2 -10 -4 -10 -3 0 -8 5 -11 10 -3 6 -1 10 4 10 6 0 11
-4 11 -10z"/>
</g>
</svg>
